<?xml version="1.0" standalone="no"?>
<!DOCTYPE svg PUBLIC "-//W3C//DTD SVG 20010904//EN"
 "http://www.w3.org/TR/2001/REC-SVG-20010904/DTD/svg10.dtd">
<svg version="1.0" xmlns="http://www.w3.org/2000/svg"
 width="1000.000000pt" height="1000.000000pt" viewBox="0 0 1000.000000 1000.000000"
 preserveAspectRatio="xMidYMid meet">
<metadata>
Created by potrace 1.13, written by Peter Selinger 2001-2015
</metadata>
<g transform="translate(0.000000,1000.000000) scale(0.100000,-0.100000)"
fill="#000000" stroke="none">
<path d="M2090 8340 l0 -570 -185 0 -185 0 0 -70 0 -70 -85 0 -85 0 0 -2300 0
-2300 1750 0 1750 0 0 870 0 870 410 0 410 0 0 -870 0 -870 1290 0 1290 0 0
2420 0 2420 -125 0 -125 0 0 520 0 520 -40 0 -40 0 0 -520 0 -520 -175 0 -175
0 0 480 0 480 -30 0 -30 0 0 -480 0 -480 -150 0 -150 0 0 -455 0 -455 -150 0
-150 0 0 -580 0 -580 -80 0 -80 0 0 480 0 480 -60 0 -60 0 0 310 0 310 -55 0
-55 0 0 225 0 225 -50 0 -50 0 0 140 0 140 -50 0 -50 0 0 125 c0 118 -1 125
-20 125 -15 0 -20 7 -20 25 0 16 -6 25 -15 25 -13 0 -15 34 -15 250 l0 250
-35 0 -35 0 0 -250 c0 -216 -2 -250 -15 -250 -9 0 -15 -9 -15 -25 0 -18 -5
-25 -20 -25 -19 0 -20 -7 -20 -125 l0 -125 -50 0 -50 0 0 -140 0 -140 -50 0
-50 0 0 -225 0 -225 -55 0 -55 0 0 -310 0 -310 -65 0 -65 0 0 -890 0 -890
-410 0 -410 0 0 890 0 890 -60 0 -60 0 0 310 0 310 -55 0 -55 0 0 225 0 225
-50 0 -50 0 0 140 0 140 -50 0 -50 0 0 125 c0 118 -1 125 -20 125 -15 0 -20 7
-20 25 0 16 -6 25 -15 25 -13 0 -15 34 -15 250 l0 250 -35 0 -35 0 0 -250 c0
-216 -2 -250 -15 -250 -9 0 -15 -9 -15 -25 0 -18 -5 -25 -20 -25 -19 0 -20 -7
-20 -125 l0 -125 -50 0 -50 0 0 -140 0 -140 -50 0 -50 0 0 -225 0 -225 -55 0
-55 0 0 -310 0 -310 -55 0 -55 0 0 1075 0 1075 -630 0 -630 0 0 -645 0 -645
-80 0 -80 0 0 75 0 75 -185 0 -185 0 0 570 0 570 -55 0 -55 0 0 -570z"/>
</g>
</svg>
